<svg xmlns="http://www.w3.org/2000/svg" width="73" height="8" viewBox="0 0 73 8" fill="none">
  <path d="M28.7733 7.80433H32.8575V0.0228565H28.7733V7.80433ZM25.7031 0.0209596H28.124V1.02583H25.8851C25.5156 1.02583 25.2132 1.13538 24.978 1.35399C24.7422 1.57261 24.6246 1.85998 24.6246 2.21565C24.6246 2.57132 24.7422 2.87007 24.978 3.08869C25.2132 3.3073 25.516 3.41685 25.8851 3.41685H28.124V7.80481H23.2368V6.79804H25.799C26.1972 6.79804 26.5218 6.68328 26.7714 6.45328C27.0215 6.22376 27.1465 5.93069 27.1465 5.57503C27.1465 5.21936 27.0215 4.93009 26.7714 4.70768C26.5214 4.48527 26.1972 4.3743 25.799 4.3743L25.4739 4.37999C24.4283 4.37999 23.579 3.51644 23.5725 2.4466L23.5711 2.21186V2.20332C23.5711 0.998327 24.526 0.0214339 25.7036 0.0214339L25.7031 0.0209596ZM35.8434 0.0209596H38.1893V1.02583H36.0259C35.6563 1.02583 35.3539 1.13538 35.1187 1.35399C34.883 1.57261 34.7654 1.85998 34.7654 2.21565C34.7654 2.57132 34.883 2.87007 35.1187 3.08869C35.3539 3.3073 35.6568 3.41685 36.0259 3.41685H38.1893V5.58119C38.1893 6.80942 37.2164 7.80481 36.0161 7.80481H33.5267V6.79804H35.8642C36.2625 6.79804 36.5871 6.68328 36.8367 6.45328C37.0867 6.22376 37.2118 5.93069 37.2118 5.57503C37.2118 5.21936 37.0867 4.93009 36.8367 4.70768C36.5866 4.48527 36.2625 4.37999 35.8642 4.37999H33.7249L33.7114 2.21186V2.20332C33.7114 0.998327 34.6663 0.0214339 35.8439 0.0214339L35.8434 0.0209596ZM3.80319 0.0209596H6.54178V1.02583H3.87959C3.37994 1.02583 2.9178 1.15387 2.49409 1.40948C2.07038 1.66508 1.73512 2.01363 1.48877 2.45466C1.24241 2.89568 1.11924 3.37559 1.11924 3.89439C1.11924 4.41319 1.24241 4.9372 1.48877 5.37443C1.73512 5.81214 2.06992 6.15832 2.49409 6.41392C2.9178 6.66952 3.37994 6.79756 3.87959 6.79756H5.49848V4.37952H2.86871V3.4012H6.54178V7.80433H3.80597C1.70456 7.80576 0 6.063 0 3.91288C0 1.76324 1.70271 0.0209596 3.80319 0.0209596ZM14.5186 3.63404V7.80718H13.5494V3.64732C13.5494 2.19953 12.4024 1.02583 10.9872 1.02583C9.5721 1.02583 8.42508 2.19953 8.42508 3.64732V7.80718H7.44754V0.0257018H10.9923C12.94 0.0257018 14.5191 1.64137 14.5191 3.63452L14.5186 3.63404ZM32.1342 2.3693C32.1342 3.11572 31.5433 3.72035 30.8149 3.72035C30.0865 3.72035 29.4957 3.11525 29.4957 2.3693C29.4957 1.62335 30.0865 1.01824 30.8149 1.01824C31.5433 1.01824 32.1342 1.62335 32.1342 2.3693ZM40.8293 3.90624V3.91525C40.8293 6.06442 42.532 7.80433 44.6325 7.80433H46.2398V6.79756H44.6584C43.0802 6.79756 41.8045 5.47117 41.8383 3.84839C41.8712 2.27066 43.1678 1.02536 44.7103 1.02536H46.2398V0.0257018H44.6218C42.5269 0.0257018 40.8288 1.76324 40.8288 3.90672L40.8293 3.90624ZM69.4738 0.0257018H65.929V7.80433H66.9065V3.64732C66.9065 2.19953 68.0536 1.02583 69.4687 1.02583C70.8839 1.02583 72.0309 2.19953 72.0309 3.64732V7.80433H73.0001V3.63404C73.0001 1.6409 71.421 0.0252276 69.4733 0.0252276L69.4738 0.0257018ZM51.7799 2.63439C51.7799 2.84921 51.7054 3.03083 51.5572 3.17927C51.4086 3.3277 51.233 3.40167 51.0302 3.40167H48.7704C48.5602 3.40167 48.3829 3.3277 48.2379 3.17927C48.093 3.03131 48.0207 2.84968 48.0207 2.63439V0.0257018H47.0432V7.80433H48.0207V5.1468C48.0207 4.93198 48.093 4.75036 48.2379 4.60193C48.3829 4.45397 48.5602 4.37952 48.7704 4.37952H51.0302C51.233 4.37952 51.4086 4.4535 51.5572 4.60193C51.7054 4.75036 51.7799 4.93198 51.7799 5.1468V7.80433H52.7468V0.0257018H51.7799V2.63439ZM61.0418 0.0257018V7.80433H65.126V0.0257018H61.0418ZM63.0839 3.72082C62.355 3.72082 61.7646 3.11572 61.7646 2.36977C61.7646 1.62382 62.3555 1.01872 63.0839 1.01872C63.8123 1.01872 64.4032 1.62382 64.4032 2.36977C64.4032 3.11572 63.8123 3.72082 63.0839 3.72082ZM57.4627 0.439696C57.3335 0.146628 57.1511 -0.000380272 56.9144 -0.000380272C56.6778 -0.000380272 56.4954 0.146154 56.3662 0.439696L53.1099 7.80433H60.6866L57.4627 0.439696ZM56.9144 6.52963C56.1856 6.52963 55.5952 5.92453 55.5952 5.17858C55.5952 4.43263 56.186 3.82752 56.9144 3.82752C57.6428 3.82752 58.2337 4.43263 58.2337 5.17858C58.2337 5.92453 57.6428 6.52963 56.9144 6.52963ZM22.4389 1.93159C22.0903 1.33076 21.6198 0.858432 21.0284 0.514623C20.4366 0.171287 19.792 -0.000854492 19.0947 -0.000854492C18.3973 -0.000854492 17.7791 0.171287 17.1766 0.514623C16.5742 0.858432 16.1037 1.33076 15.7661 1.93159C15.4276 2.5329 15.2591 3.18733 15.2591 3.89581C15.2591 4.6043 15.4281 5.25919 15.7661 5.86003C16.1042 6.46134 16.5746 6.93888 17.1766 7.29312C17.7791 7.64737 18.4177 7.82425 19.0947 7.82425C19.7717 7.82425 20.4362 7.64737 21.0284 7.29312C21.6198 6.93888 22.0903 6.46134 22.4389 5.86003C22.7876 5.25919 22.9617 4.60382 22.9617 3.89581C22.9617 3.1878 22.7876 2.53243 22.4389 1.93159ZM19.1109 5.26915C18.3801 5.26915 17.7879 4.66215 17.7879 3.91336C17.7879 3.16456 18.3801 2.55756 19.1109 2.55756C19.8416 2.55756 20.4339 3.16456 20.4339 3.91336C20.4339 4.66215 19.8416 5.26915 19.1109 5.26915Z" fill="#3E6957"/>
</svg>