<svg xmlns="http://www.w3.org/2000/svg" width="16" height="15" viewBox="0 0 16 15" fill="none">
  <path fill-rule="evenodd" clip-rule="evenodd" d="M1.87541 10.7824V15H8.43326C12.6123 15 16 11.6421 16 7.5C16 3.35787 12.6123 0 8.43326 0H1.87541V4.21756H0.000101164L5.62048e-05 5.26789C2.51641e-05 5.99304 0.593104 6.58092 1.32471 6.58092H1.87541V8.41908H1.3247C0.593137 8.41908 7.60031e-05 9.00688 4.49643e-05 9.732L0 10.7824H1.87541ZM8.43326 2.36335H4.2598V4.21756H9.07391C10.3908 4.21756 11.4583 5.27567 11.4583 6.58092H4.2598V8.41908H11.4583C11.4583 9.72432 10.3908 10.7824 9.07391 10.7824H4.2598V12.6366H8.43326C11.2954 12.6366 13.6156 10.3369 13.6156 7.5C13.6156 4.66311 11.2954 2.36335 8.43326 2.36335Z" fill="#BAB7AE"/>
</svg>