<svg width="1512" height="436" viewBox="0 0 1512 436" fill="none" xmlns="http://www.w3.org/2000/svg">
<g opacity="0.25">
<g opacity="0.1">
<path d="M989.203 283.155C954.246 283.155 922.059 280.355 894.949 273.686C818.572 254.9 765.014 196.373 713.203 139.773C636.826 56.3191 564.682 -22.4989 428.361 30.5486C222.246 110.751 2.36429 139.563 0.165572 139.849L0 138.6C2.19872 138.313 221.93 109.532 427.879 29.374C565.013 -23.9889 637.429 55.1453 714.106 138.931C765.782 195.395 819.22 253.786 895.22 272.482C992.095 296.311 1154.52 270.495 1273.71 244.649C1402.91 216.62 1510.54 182.524 1511.62 182.178L1512 183.383C1510.93 183.729 1403.22 217.839 1273.98 245.884C1187.97 264.534 1079.44 283.17 989.188 283.17L989.203 283.155Z" fill="#F0EBDE"/>
</g>
<g style="mix-blend-mode:hard-light" opacity="0.13">
<path d="M975.618 281.363C948.884 281.363 924.123 279.467 902.194 275.132C826.465 260.169 772.138 205.435 719.589 152.494C668.576 101.102 620.394 52.5563 554.471 37.7739C516.365 29.0886 476.332 32.4754 432.097 48.1155C227.684 120.4 8.25396 140.466 6.07022 140.662L5.94958 139.307C8.13333 139.111 227.397 119.061 431.645 46.821C476.136 31.0902 516.41 27.6885 554.772 36.4345C621.087 51.3068 669.405 99.9884 720.553 151.53C772.952 204.322 827.128 258.904 902.449 273.792C1032.78 299.548 1264.86 239.215 1403.51 203.163C1476.23 184.256 1508.44 176.142 1510.23 181.832L1508.93 182.239C1507.47 177.542 1459.46 190.021 1403.86 204.472C1288.38 234.488 1108.13 281.348 975.603 281.348L975.618 281.363Z" fill="#F0EBDE"/>
</g>
<g style="mix-blend-mode:hard-light" opacity="0.17">
<path d="M962.951 280.145C943.914 280.145 925.991 279.031 909.469 276.562C834.297 265.317 779.052 214.317 725.614 165.003C676.047 119.257 624.808 71.9601 558.237 57.6294C519.318 49.2444 479.285 51.8791 435.863 65.6824C233.197 130.095 14.1738 141.385 11.9743 141.49L11.8994 140.03C14.0832 139.925 232.926 128.635 435.411 64.2823C479.074 50.4033 519.348 47.7544 558.538 56.1993C625.486 70.6199 676.89 118.052 726.593 163.919C779.865 213.083 834.96 263.932 909.679 275.102C1024.6 292.292 1209.79 243.746 1345.01 208.311C1440.5 183.277 1503.58 166.749 1508.03 181.095L1506.64 181.531C1502.6 168.511 1433.23 186.71 1345.39 209.726C1229.45 240.118 1076.76 280.145 962.951 280.145Z" fill="#F0EBDE"/>
</g>
<g style="mix-blend-mode:hard-light" opacity="0.2">
<path d="M952.076 279.662C939.786 279.662 927.978 279.121 916.742 277.977C842.188 270.36 785.934 223.063 731.547 177.316C681.212 134.987 629.159 91.2125 562.016 77.4691C522.299 69.3404 482.281 71.2222 439.642 83.2343C238.768 139.789 20.0913 142.273 17.9075 142.288V140.738C20.0763 140.722 238.557 138.239 439.22 81.7293C482.1 69.6565 522.374 67.7597 562.332 75.9483C629.867 89.7674 682.071 133.677 732.556 176.127C786.777 221.723 842.836 268.855 916.923 276.426C1022.14 287.174 1178.86 244.047 1304.77 209.395C1417.16 178.46 1498.34 156.122 1505.85 180.342L1504.36 180.794C1497.3 158.003 1412.52 181.336 1305.18 210.885C1192.55 241.88 1055.31 279.647 952.091 279.647L952.076 279.662Z" fill="#F0EBDE"/>
</g>
<g style="mix-blend-mode:hard-light" opacity="0.23">
<path d="M942.845 279.903C936.428 279.903 930.163 279.738 924.018 279.407C850.021 275.342 795.198 233.614 737.151 189.464C686.108 150.627 633.333 110.465 565.752 97.3388C525.132 89.4513 485.098 90.5802 443.363 100.801C244.327 149.543 25.9518 143.176 23.7673 143.115L23.828 141.46C26.0117 141.535 244.161 147.887 442.972 99.1906C484.948 88.9089 525.222 87.765 566.069 95.7132C634.026 108.915 686.951 149.182 738.145 188.139C795.981 232.154 850.609 273.716 924.094 277.75C1022.37 283.17 1156.73 243.55 1275.27 208.612C1396.77 172.8 1492.74 144.5 1503.63 179.604L1502.04 180.086C1491.64 146.548 1391.59 176.052 1275.73 210.192C1164.46 242.993 1039.25 279.888 942.815 279.903H942.845Z" fill="#F0EBDE"/>
</g>
<g style="mix-blend-mode:hard-light" opacity="0.27">
<path d="M911.893 281.92C845.879 281.92 792.983 243.625 737.271 203.282C686.981 166.869 634.989 129.221 569.532 117.179C527.842 109.517 487.809 109.893 447.128 118.353C249.974 159.343 31.87 144.079 29.6863 143.913L29.8069 142.167C31.9906 142.332 249.854 157.582 446.767 116.637C487.673 108.132 527.933 107.74 569.848 115.448C635.697 127.551 687.855 165.319 738.295 201.852C799.114 245.883 856.573 287.46 931.217 279.06C1010.24 270.164 1109.29 240.208 1205.08 211.246C1355.41 165.785 1485.24 126.527 1501.46 178.836L1499.79 179.348C1484.08 128.71 1348.81 169.609 1205.59 212.917C1109.72 241.909 1010.61 271.88 931.413 280.791C924.771 281.544 918.264 281.89 911.893 281.89V281.92Z" fill="#F0EBDE"/>
</g>
<g style="mix-blend-mode:hard-light" opacity="0.3">
<path d="M909.347 284.825C848.123 284.825 796.282 251.076 741.82 215.627C691.047 182.569 638.544 148.399 573.282 137.064C529.71 129.493 490.806 129.146 450.848 135.95C255.622 169.233 37.729 144.997 35.5452 144.756L35.7557 142.92C37.9245 143.175 255.562 167.366 450.532 134.129C490.701 127.28 529.8 127.641 573.583 135.243C639.206 146.653 691.876 180.929 742.799 214.091C805.439 254.87 864.6 293.391 938.371 280.445C1009.7 267.935 1095.69 239.184 1178.84 211.396C1307.29 168.465 1428.61 127.897 1478.16 153.291C1488.7 158.696 1495.79 167.065 1499.24 178.144L1497.48 178.686C1494.15 167.938 1487.55 160.171 1477.33 154.932C1428.48 129.899 1307.51 170.332 1179.44 213.142C1096.23 240.96 1010.17 269.727 938.703 282.266C928.657 284.027 918.882 284.84 909.332 284.856L909.347 284.825Z" fill="#F0EBDE"/>
</g>
<g style="mix-blend-mode:hard-light" opacity="0.33">
<path d="M927.528 284.449C862.688 284.449 808.151 255.337 750.676 224.658C698.428 196.765 644.403 167.938 577.048 156.904C546.173 151.846 504.362 146.894 454.584 153.502C261.317 179.153 43.6189 145.901 41.4352 145.555L41.7363 143.628C43.9051 143.959 261.347 177.181 454.328 151.575C504.362 144.937 546.353 149.92 577.35 154.993C645.005 166.071 699.182 194.988 751.58 222.957C814.13 256.345 873.216 287.867 945.706 281.74C1031.42 274.499 1133.94 235.587 1224.38 201.251C1332.63 160.171 1426.11 124.676 1471.86 146.969C1484.18 152.975 1492.66 163.196 1497.06 177.376L1495.21 177.949C1490.91 164.115 1483 154.556 1471.02 148.715C1426.03 126.783 1332.9 162.143 1225.09 203.057C1134.53 237.439 1031.87 276.396 945.887 283.666C939.682 284.194 933.552 284.449 927.543 284.449H927.528Z" fill="#F0EBDE"/>
</g>
<g style="mix-blend-mode:hard-light" opacity="0.37">
<path d="M924.228 286.963C863.305 286.963 809.671 262.14 753.296 236.054C701.168 211.924 647.264 186.98 580.813 176.759C546.428 171.461 504.994 166.659 458.319 171.054C267.038 189.118 49.4914 146.788 47.3226 146.352L47.7144 144.35C49.8832 144.772 267.159 187.056 458.123 169.022C505.024 164.596 546.609 169.428 581.114 174.742C647.851 185.023 701.891 210.027 754.155 234.202C818.994 264.203 880.234 292.548 952.905 283.065C1036.07 272.196 1131.4 232.651 1215.5 197.759C1322.16 153.502 1414.28 115.282 1463.58 138.373C1478.87 145.539 1489.09 158.048 1494.86 176.624L1492.91 177.226C1487.33 159.222 1477.45 147.119 1462.72 140.21C1414.24 117.495 1322.51 155.549 1216.3 199.625C1132.08 234.563 1036.62 274.183 953.176 285.081C943.326 286.361 933.686 286.963 924.228 286.963Z" fill="#F0EBDE"/>
</g>
<g style="mix-blend-mode:hard-light" opacity="0.4">
<path d="M919.213 290.139C862.748 290.139 811.734 269.999 754.381 247.374C702.826 227.022 649.508 205.978 584.579 196.615C553.296 192.099 510.431 185.912 462.054 188.621C272.793 199.174 55.3811 147.677 53.1973 147.165L53.694 145.088C55.8628 145.614 272.973 197.036 461.918 186.499C510.521 183.79 553.492 189.991 584.88 194.507C650.051 203.901 703.488 224.99 755.164 245.387C825.817 273.265 886.845 297.35 960.105 284.404C1041.3 270.058 1130.6 229.566 1209.4 193.83C1313.4 146.668 1403.22 105.935 1455.08 129.222C1473.16 137.335 1485.46 152.599 1492.69 175.886L1490.64 176.519C1483.61 153.849 1471.69 139.021 1454.21 131.179C1403.24 108.283 1313.82 148.836 1210.29 195.787C1131.38 231.568 1041.95 272.121 960.481 286.527C946.324 289.025 932.617 290.17 919.228 290.17L919.213 290.139Z" fill="#F0EBDE"/>
</g>
<g style="mix-blend-mode:hard-light" opacity="0.43">
<path d="M913.581 293.872C860.067 293.872 809.566 277.224 753.282 258.664C702.917 242.06 650.849 224.899 588.345 216.469C556.821 212.225 514.378 207.212 465.73 206.173C278.547 202.169 61.2859 148.505 59.1021 147.963L59.6445 145.795C61.8133 146.337 278.848 199.941 465.775 203.931C514.544 204.969 557.047 209.981 588.646 214.241C651.347 222.686 703.519 239.892 753.975 256.526C828.499 281.092 892.856 302.317 967.29 285.714C1046.98 267.951 1131.23 226.239 1205.56 189.434C1306.13 139.638 1392.98 96.6466 1446.47 119.573C1467.25 128.484 1481.65 146.653 1490.48 175.119L1488.34 175.781C1479.72 147.978 1465.73 130.275 1445.58 121.635C1393.03 99.1149 1306.61 141.897 1206.54 191.451C1132.11 228.301 1047.73 270.088 967.771 287.912C949.17 292.051 931.202 293.872 913.581 293.872Z" fill="#F0EBDE"/>
</g>
<g style="mix-blend-mode:hard-light" opacity="0.47">
<path d="M905.688 298.359C854.539 298.359 804.415 284.901 749.064 270.043C700.822 257.083 650.939 243.701 592.094 236.325C584.518 235.376 576.672 234.292 568.373 233.148C539.169 229.129 506.078 224.568 469.479 223.725C284.284 219.495 67.0984 149.453 64.9297 148.746L65.6526 146.533C67.8214 147.24 284.691 217.162 469.524 221.392C506.244 222.235 539.424 226.796 568.689 230.831C576.988 231.975 584.819 233.058 592.395 234.006C651.391 241.398 703.609 255.412 749.666 267.786C829.297 289.176 898.067 307.631 974.458 287.069C1053.05 265.904 1133.02 222.717 1203.59 184.632C1300.18 132.488 1383.59 87.4497 1437.87 109.592C1461.21 119.121 1477.71 140.316 1488.28 174.381L1486.05 175.074C1475.7 141.701 1459.66 120.988 1437 111.745C1383.73 90.0236 1300.76 134.807 1204.7 186.68C1134.03 224.839 1053.94 268.087 975.076 289.312C951.384 295.694 928.43 298.359 905.688 298.359Z" fill="#F0EBDE"/>
</g>
<g style="mix-blend-mode:hard-light" opacity="0.5">
<path d="M894.271 303.838C844.825 303.838 794.881 293.24 740.268 281.665C695.536 272.181 649.267 262.366 595.874 256.179C584.292 254.84 571.911 253.048 558.778 251.136C533.234 247.433 504.286 243.234 473.184 241.292C290.038 229.776 72.9724 150.356 70.7886 149.559L71.6322 147.27C73.8009 148.068 290.534 227.367 473.335 238.853C504.527 240.81 533.535 245.01 559.124 248.728C572.228 250.625 584.594 252.416 596.145 253.756C649.659 259.958 698.051 270.224 740.765 279.286C827.383 297.651 902.178 313.516 981.642 288.408C1059.48 263.811 1135.83 218.923 1203.19 179.333C1295.43 125.112 1375.09 78.2819 1429.44 99.2954C1455.11 109.231 1473.64 133.542 1486.08 173.644L1483.76 174.366C1471.56 135.032 1453.5 111.218 1428.56 101.569C1375.32 80.9914 1296.12 127.535 1204.43 181.44C1136.96 221.106 1060.49 266.054 982.38 290.742C952.619 300.15 923.535 303.853 894.271 303.853V303.838Z" fill="#F0EBDE"/>
</g>
<g style="mix-blend-mode:hard-light" opacity="0.53">
<path d="M877.763 310.838C830.153 310.838 780.511 302.799 724.287 293.707C685.263 287.4 644.914 280.867 599.639 276.034C584.095 274.379 566.91 271.654 548.716 268.794C527.073 265.377 502.553 261.493 476.903 258.844C295.775 240.118 78.8456 151.244 76.6769 150.341L77.6403 148.008C79.8098 148.896 296.408 237.634 477.159 256.33C502.869 258.995 527.434 262.863 549.108 266.295C567.272 269.17 584.427 271.88 599.91 273.521C645.26 278.353 685.639 284.886 724.694 291.208C825.229 307.465 904.647 320.321 988.825 289.748C1066.21 261.644 1139.45 214.829 1204.08 173.538C1291.76 117.51 1367.47 69.1141 1421.22 88.7583C1448.96 98.9044 1469.47 126.422 1483.88 172.891L1481.45 173.644C1467.29 127.987 1447.31 100.997 1420.35 91.1368C1367.77 71.9143 1292.55 119.994 1205.44 175.66C1140.7 217.027 1067.33 263.932 989.684 292.126C952.136 305.765 915.582 310.838 877.763 310.838Z" fill="#F0EBDE"/>
</g>
<g style="mix-blend-mode:hard-light" opacity="0.57">
<path d="M853.35 319.357C804.973 319.357 753.629 313.185 696.335 306.306C666.844 302.769 636.345 299.096 603.421 295.89C583.811 293.978 561.43 290.019 537.738 285.834C519.514 282.613 500.672 279.286 480.625 276.396C301.516 250.535 84.7213 152.132 82.5526 151.138L83.6515 148.745C85.8211 149.739 302.268 247.976 481.002 273.791C501.094 276.697 519.951 280.023 538.205 283.245C561.851 287.43 584.188 291.374 603.692 293.271C636.646 296.492 667.161 300.15 696.666 303.687C812.82 317.626 904.559 328.645 996.027 291.088C1073.22 259.386 1143.81 210.418 1206.07 167.215C1292.48 107.274 1360.72 59.9321 1413.36 78.0406C1442.87 88.2017 1465.22 118.97 1481.71 172.138L1479.2 172.921C1462.97 120.611 1441.17 90.3996 1412.5 80.5397C1361.12 62.8372 1289.97 112.227 1207.56 169.383C1145.18 212.661 1074.48 261.719 997.02 293.526C950.194 312.749 903.384 319.357 853.365 319.357H853.35Z" fill="#F0EBDE"/>
</g>
<g style="mix-blend-mode:hard-light" opacity="0.6">
<path d="M819.445 330.346C767.468 330.346 710.852 325.183 646.435 319.297C633.662 318.138 620.589 316.934 607.185 315.744C583.252 313.622 555.027 307.948 525.13 301.941C511.996 299.291 498.396 296.567 484.314 293.948C307.192 261.011 90.5787 153.02 88.41 151.937L89.6296 149.498C91.7983 150.582 308.065 258.407 484.811 291.268C498.908 293.887 512.509 296.628 525.657 299.276C555.479 305.268 583.644 310.943 607.41 313.051C620.815 314.239 633.904 315.428 646.676 316.603C793.841 330.03 900.159 339.739 1003.16 292.473C1080.4 257.037 1148.66 205.707 1208.87 160.412C1290.35 99.1299 1354.72 50.7344 1405.83 67.2331C1436.75 77.2129 1460.85 111.293 1479.5 171.431L1476.89 172.243C1458.53 113.025 1435 79.5314 1404.99 69.837C1355.23 53.7601 1291.36 101.795 1210.52 162.594C1150.19 207.965 1081.81 259.386 1004.31 294.956C945.885 321.766 886.529 330.376 819.43 330.376L819.445 330.346Z" fill="#F0EBDE"/>
</g>
<g style="mix-blend-mode:hard-light" opacity="0.63">
<path d="M774.85 343.969C724.499 343.969 670.308 340.327 610.952 335.6C582.23 333.312 548.763 325.544 510.01 316.558C502.811 314.887 495.476 313.185 488.02 311.485C312.841 271.548 96.4387 153.894 94.2699 152.704L95.6259 150.221C97.7946 151.41 313.85 268.87 488.638 308.715C496.108 310.416 503.443 312.117 510.642 313.788C549.29 322.759 582.666 330.497 611.177 332.77C774.337 345.761 898.489 350.563 1010.35 293.782C1087.83 254.448 1154.02 200.543 1212.43 152.99C1289 90.6401 1349.47 41.3861 1398.74 56.2442C1431.16 66.0285 1456.14 102.382 1477.3 170.633L1474.6 171.461C1454.03 105.106 1428.94 68.3013 1397.91 58.938C1350.1 44.5174 1290.13 93.3347 1214.21 155.158C1155.69 202.801 1089.38 256.812 1011.63 296.281C939.922 332.68 863.32 343.939 774.85 343.939V343.969Z" fill="#F0EBDE"/>
</g>
<g style="mix-blend-mode:hard-light" opacity="0.67">
<path d="M732.09 360.167C694.783 360.167 655.743 358.36 614.716 355.47C580.376 353.046 537.3 341.38 491.695 329.037C318.413 282.146 102.282 154.781 100.113 153.502L101.605 150.989C103.758 152.268 319.573 279.437 492.463 326.222C537.918 338.52 580.858 350.141 614.927 352.549C774.473 363.839 904.001 358.405 1017.52 295.152C1095.4 251.754 1159.76 195.079 1216.52 145.072C1288.25 81.8941 1344.92 32.0087 1392.07 45.2404C1425.23 54.5579 1451.62 94.1625 1475.1 169.895L1472.31 170.753C1449.14 96.0593 1423.4 57.057 1391.28 48.0398C1345.67 35.2299 1289.53 84.6644 1218.46 147.255C1161.58 197.352 1097.12 254.147 1018.95 297.696C934.048 344.993 840.381 360.152 732.09 360.152V360.167Z" fill="#F0EBDE"/>
</g>
<g style="mix-blend-mode:hard-light" opacity="0.7">
<path d="M698.322 377.914C672.899 377.914 646.33 377.041 618.497 375.31C585.934 373.293 545.735 362.364 495.4 346.574C323.986 292.788 108.157 155.655 105.987 154.285L107.614 151.741C109.768 153.111 325.266 290.034 496.303 343.699C546.428 359.429 586.416 370.312 618.677 372.314C795.152 383.258 920.372 359.88 1024.69 296.522C1103.14 248.864 1168.54 186.619 1221.09 136.612C1288.07 72.8627 1340.96 22.5247 1385.85 34.1908C1419.38 42.9218 1447.06 85.8083 1472.91 169.172L1470.02 170.06C1444.51 87.78 1417.52 45.5407 1385.07 37.0959C1341.82 25.8516 1289.46 75.6921 1223.17 138.795C1170.51 188.907 1105 251.272 1026.25 299.096C937.859 352.775 834.643 377.914 698.322 377.914Z" fill="#F0EBDE"/>
</g>
<g style="mix-blend-mode:hard-light" opacity="0.73">
<path d="M678.742 396.73C660.398 396.73 641.586 396.219 622.262 395.18C592.757 393.615 554.772 384.025 499.09 364.126C329.468 303.476 114 156.543 111.846 155.068L113.608 152.494C115.762 153.969 330.899 300.677 500.144 361.175C555.525 380.985 593.254 390.498 622.443 392.064C790.558 401.021 920.659 371.095 1031.87 297.876C1111.04 245.763 1174.77 180.222 1226 127.566C1290.76 60.9854 1337.56 12.8611 1380.06 23.0513C1414.12 31.2108 1442.07 76.039 1470.73 168.405L1467.75 169.323C1439.84 79.3651 1411.75 33.8447 1379.34 26.0771C1338.57 16.3078 1292.29 63.8755 1228.22 129.733C1176.9 182.494 1113.04 248.156 1033.59 300.466C934.576 365.646 820.741 396.715 678.758 396.715L678.742 396.73Z" fill="#F0EBDE"/>
</g>
<g style="mix-blend-mode:hard-light" opacity="0.77">
<path d="M664.238 415.879C651.677 415.879 638.935 415.593 626.042 415.035C595.483 413.62 555.179 402.707 502.78 381.648C334.905 314.194 119.859 157.416 117.705 155.835L119.603 153.246C121.757 154.812 336.472 311.364 503.969 378.667C556.022 399.591 595.995 410.429 626.178 411.814C787.485 418.814 922.526 381.979 1039.03 299.231C1119 242.421 1181.18 173.417 1231.12 117.977C1291.2 51.2918 1334.59 3.1068 1374.67 11.9127C1408.47 19.3343 1437.4 67.3687 1468.51 167.667L1465.45 168.615C1434.72 69.5508 1406.51 22.1936 1373.99 15.0441C1335.76 6.65912 1292.87 54.2418 1233.53 120.129C1183.48 175.691 1121.17 244.845 1040.91 301.851C933.114 378.411 809.58 415.863 664.253 415.863L664.238 415.879Z" fill="#F0EBDE"/>
</g>
<g style="mix-blend-mode:hard-light" opacity="0.8">
<path d="M656.541 435.372C647.686 435.372 638.769 435.206 629.807 434.89C548.822 431.955 415.439 356.403 317.811 293.541C212.155 225.516 124.437 157.295 123.564 156.618L125.597 154.014C126.471 154.692 214.083 222.837 319.618 290.787C459.117 380.609 566.414 429.29 629.928 431.594C639.116 431.925 648.228 432.09 657.174 432.09C965.933 432.09 1128.08 237.74 1236.45 107.876C1291.99 41.3262 1332.11 -6.73817 1369.7 0.773268C1402.94 7.412 1432.73 58.6676 1466.31 166.945L1463.15 167.923C1429.97 60.9405 1400.95 10.392 1369.05 4.00946C1333.38 -3.11017 1293.79 44.3219 1238.99 109.999C1183.21 176.85 1113.79 260.033 1016.28 326.282C963.282 362.289 906.651 389.671 847.972 407.674C787.952 426.099 723.67 435.387 656.541 435.387V435.372Z" fill="#F0EBDE"/>
</g>
</g>
</svg>
